<svg version="1.1" id="Layer_1" xmlns="http://www.w3.org/2000/svg" xmlns:xlink="http://www.w3.org/1999/xlink" x="0px" y="0px" width="100%" viewBox="0 0 1000 1000" enable-background="new 0 0 1000 1000" xml:space="preserve">

<path fill="#FF6900" opacity="1.000000" stroke="none" d="
M818.999268,206.052689 
	C835.825684,205.980698 852.652100,205.872940 869.478577,205.845596 
	C891.643921,205.809586 913.809387,205.836777 935.974792,205.836777 
	C937.762939,205.836777 939.551147,205.836761 941.594421,205.836761 
	C941.594421,401.774323 941.594421,597.205444 941.594421,793.252930 
	C939.918701,793.351013 938.175964,793.542664 936.433350,793.541870 
	C903.935608,793.526733 871.437744,793.431580 838.940491,793.539307 
	C835.494812,793.550781 833.581421,792.354797 831.683533,789.604004 
	C775.047180,707.516541 718.347961,625.472473 661.610046,543.455078 
	C637.854736,509.115631 613.979370,474.859314 590.186951,440.545502 
	C587.064697,436.042633 584.285156,431.291504 580.990234,426.924438 
	C579.768677,425.305389 577.521545,424.460144 575.742065,423.262024 
	C575.275818,423.637115 574.809509,424.012207 574.343201,424.387268 
	C574.343201,428.335876 574.343201,432.284454 574.343201,436.233063 
	C574.343201,553.226379 574.343445,670.219666 574.342468,787.213013 
	C574.342468,793.996399 574.337830,793.999512 567.365356,793.999451 
	C527.374695,793.999146 487.383881,794.027222 447.393768,793.881226 
	C445.863007,793.875671 443.808807,792.553528 442.887909,791.227234 
	C414.780518,750.748230 386.788879,710.188782 358.770721,669.647827 
	C304.653442,591.342529 250.530930,513.040894 196.411377,434.737122 
	C194.626526,432.154694 193.093521,429.342163 190.987518,427.056702 
	C189.490479,425.432129 187.226456,424.514313 184.207123,422.576630 
	C184.207123,547.234253 184.207123,670.020081 184.207123,793.180176 
	C142.780350,793.180176 101.712364,793.180176 60.329361,793.180176 
	C60.329361,597.606628 60.329361,402.052795 60.329361,206.088120 
	C61.899326,206.005341 63.496838,205.848297 65.094421,205.847610 
	C98.259186,205.833313 131.424179,205.891144 164.588394,205.754425 
	C167.983231,205.740433 169.987839,206.810547 171.875793,209.568802 
	C232.876785,298.690674 293.953461,387.760742 355.011139,476.843872 
	C377.273865,509.325165 399.499756,541.831787 421.851654,574.251587 
	C422.539429,575.249207 424.542847,575.978027 425.749207,575.769531 
	C426.649292,575.613953 427.540100,573.828125 427.907379,572.609314 
	C428.275787,571.386780 427.991089,569.967163 427.991089,568.633911 
	C427.991211,449.973999 427.991241,331.314117 427.991241,212.654205 
	C427.991241,210.666931 427.991211,208.679642 427.991211,205.638855 
	C436.423981,205.638855 444.672363,205.626312 452.920685,205.641022 
	C486.916382,205.701675 520.912109,205.817200 554.907654,205.760117 
	C558.097839,205.754761 559.987305,206.675415 561.805603,209.334656 
	C601.055420,266.738617 640.413025,324.068939 679.731140,381.426178 
	C723.111450,444.709290 766.473145,508.005219 809.843750,571.294922 
	C810.502502,572.256226 810.983765,573.481750 811.880981,574.102478 
	C813.110291,574.952881 814.706848,575.854553 816.051819,575.728577 
	C816.809875,575.657654 817.630249,573.633179 817.961731,572.368042 
	C818.288696,571.120300 818.034912,569.720154 818.034973,568.386902 
	C818.042419,448.231201 818.049744,328.075470 818.305664,207.343887 
	C818.776428,206.575500 818.924744,206.337051 818.999268,206.052689 
z" data-index="1" style="opacity: 1;"></path>

</svg>